<mxfile host="app.diagrams.net" modified="2021-10-30T14:37:35.917Z" agent="5.0 (Macintosh; Intel Mac OS X 10_15_7) AppleWebKit/537.36 (KHTML, like Gecko) Chrome/95.0.4638.54 Safari/537.36" etag="MXF41DZR9mmPjTZHFLyn" version="15.6.2" type="github">
  <diagram id="UeGQZ_6g_A-uddXcYeZ7" name="Page-1">
    <mxGraphModel dx="3080" dy="706" grid="1" gridSize="10" guides="1" tooltips="1" connect="1" arrows="1" fold="1" page="1" pageScale="1" pageWidth="1654" pageHeight="1169" math="0" shadow="0">
      <root>
        <mxCell id="0" />
        <mxCell id="1" parent="0" />
        <mxCell id="xhBRm6GIx4WbmQBnxWzt-1" value="&lt;font style=&quot;font-size: 36px&quot;&gt;What have we learned about Spring Boot?&lt;/font&gt;" style="text;html=1;strokeColor=none;fillColor=none;align=center;verticalAlign=middle;whiteSpace=wrap;rounded=0;" vertex="1" parent="1">
          <mxGeometry x="-220" y="60" width="380" height="40" as="geometry" />
        </mxCell>
        <mxCell id="xhBRm6GIx4WbmQBnxWzt-2" style="edgeStyle=orthogonalEdgeStyle;rounded=0;orthogonalLoop=1;jettySize=auto;html=1;exitX=0.5;exitY=1;exitDx=0;exitDy=0;entryX=0.5;entryY=0;entryDx=0;entryDy=0;fontSize=36;" edge="1" parent="1" source="xhBRm6GIx4WbmQBnxWzt-5" target="xhBRm6GIx4WbmQBnxWzt-7">
          <mxGeometry relative="1" as="geometry" />
        </mxCell>
        <mxCell id="xhBRm6GIx4WbmQBnxWzt-3" style="edgeStyle=orthogonalEdgeStyle;rounded=0;orthogonalLoop=1;jettySize=auto;html=1;exitX=0.25;exitY=1;exitDx=0;exitDy=0;entryX=0.5;entryY=0;entryDx=0;entryDy=0;fontSize=36;" edge="1" parent="1" source="xhBRm6GIx4WbmQBnxWzt-5" target="xhBRm6GIx4WbmQBnxWzt-59">
          <mxGeometry relative="1" as="geometry">
            <Array as="points">
              <mxPoint x="360" y="190" />
              <mxPoint x="-180" y="190" />
            </Array>
          </mxGeometry>
        </mxCell>
        <mxCell id="xhBRm6GIx4WbmQBnxWzt-4" style="edgeStyle=orthogonalEdgeStyle;rounded=0;orthogonalLoop=1;jettySize=auto;html=1;exitX=0.75;exitY=1;exitDx=0;exitDy=0;entryX=0.5;entryY=0;entryDx=0;entryDy=0;fontSize=36;" edge="1" parent="1" source="xhBRm6GIx4WbmQBnxWzt-5" target="xhBRm6GIx4WbmQBnxWzt-24">
          <mxGeometry relative="1" as="geometry" />
        </mxCell>
        <mxCell id="xhBRm6GIx4WbmQBnxWzt-5" value="Spring Boot" style="rounded=0;whiteSpace=wrap;html=1;" vertex="1" parent="1">
          <mxGeometry x="330" y="120" width="120" height="60" as="geometry" />
        </mxCell>
        <mxCell id="xhBRm6GIx4WbmQBnxWzt-6" style="edgeStyle=orthogonalEdgeStyle;rounded=0;orthogonalLoop=1;jettySize=auto;html=1;exitX=0.5;exitY=1;exitDx=0;exitDy=0;entryX=0.5;entryY=0;entryDx=0;entryDy=0;fontSize=36;" edge="1" parent="1" source="xhBRm6GIx4WbmQBnxWzt-7" target="xhBRm6GIx4WbmQBnxWzt-9">
          <mxGeometry relative="1" as="geometry" />
        </mxCell>
        <mxCell id="xhBRm6GIx4WbmQBnxWzt-7" value="Structure" style="rounded=0;whiteSpace=wrap;html=1;" vertex="1" parent="1">
          <mxGeometry x="30" y="230" width="120" height="60" as="geometry" />
        </mxCell>
        <mxCell id="xhBRm6GIx4WbmQBnxWzt-8" style="edgeStyle=orthogonalEdgeStyle;rounded=0;orthogonalLoop=1;jettySize=auto;html=1;exitX=0.5;exitY=1;exitDx=0;exitDy=0;entryX=0.5;entryY=0;entryDx=0;entryDy=0;fontSize=36;" edge="1" parent="1" source="xhBRm6GIx4WbmQBnxWzt-9" target="xhBRm6GIx4WbmQBnxWzt-11">
          <mxGeometry relative="1" as="geometry" />
        </mxCell>
        <mxCell id="xhBRm6GIx4WbmQBnxWzt-9" value="Controller" style="rounded=0;whiteSpace=wrap;html=1;" vertex="1" parent="1">
          <mxGeometry x="30" y="330" width="120" height="60" as="geometry" />
        </mxCell>
        <mxCell id="xhBRm6GIx4WbmQBnxWzt-10" style="edgeStyle=orthogonalEdgeStyle;rounded=0;orthogonalLoop=1;jettySize=auto;html=1;exitX=0.5;exitY=1;exitDx=0;exitDy=0;entryX=0.5;entryY=0;entryDx=0;entryDy=0;fontSize=36;" edge="1" parent="1" source="xhBRm6GIx4WbmQBnxWzt-11" target="xhBRm6GIx4WbmQBnxWzt-13">
          <mxGeometry relative="1" as="geometry" />
        </mxCell>
        <mxCell id="xhBRm6GIx4WbmQBnxWzt-11" value="Service" style="rounded=0;whiteSpace=wrap;html=1;" vertex="1" parent="1">
          <mxGeometry x="30" y="420" width="120" height="60" as="geometry" />
        </mxCell>
        <mxCell id="xhBRm6GIx4WbmQBnxWzt-12" value="" style="edgeStyle=orthogonalEdgeStyle;rounded=0;orthogonalLoop=1;jettySize=auto;html=1;fontSize=36;" edge="1" parent="1" source="xhBRm6GIx4WbmQBnxWzt-13" target="xhBRm6GIx4WbmQBnxWzt-15">
          <mxGeometry relative="1" as="geometry" />
        </mxCell>
        <mxCell id="xhBRm6GIx4WbmQBnxWzt-13" value="Repository" style="rounded=0;whiteSpace=wrap;html=1;" vertex="1" parent="1">
          <mxGeometry x="30" y="510" width="120" height="60" as="geometry" />
        </mxCell>
        <mxCell id="xhBRm6GIx4WbmQBnxWzt-14" value="" style="edgeStyle=orthogonalEdgeStyle;rounded=0;orthogonalLoop=1;jettySize=auto;html=1;fontSize=36;" edge="1" parent="1" source="xhBRm6GIx4WbmQBnxWzt-15" target="xhBRm6GIx4WbmQBnxWzt-64">
          <mxGeometry relative="1" as="geometry" />
        </mxCell>
        <mxCell id="xhBRm6GIx4WbmQBnxWzt-15" value="Jpa Repository" style="rounded=0;whiteSpace=wrap;html=1;" vertex="1" parent="1">
          <mxGeometry x="30" y="600" width="120" height="60" as="geometry" />
        </mxCell>
        <mxCell id="xhBRm6GIx4WbmQBnxWzt-16" value="" style="edgeStyle=orthogonalEdgeStyle;rounded=0;orthogonalLoop=1;jettySize=auto;html=1;fontSize=36;" edge="1" parent="1" source="xhBRm6GIx4WbmQBnxWzt-17" target="xhBRm6GIx4WbmQBnxWzt-64">
          <mxGeometry relative="1" as="geometry" />
        </mxCell>
        <mxCell id="xhBRm6GIx4WbmQBnxWzt-17" value="Flyway" style="rounded=0;whiteSpace=wrap;html=1;" vertex="1" parent="1">
          <mxGeometry x="220" y="690" width="120" height="60" as="geometry" />
        </mxCell>
        <mxCell id="xhBRm6GIx4WbmQBnxWzt-18" value="" style="edgeStyle=orthogonalEdgeStyle;rounded=0;orthogonalLoop=1;jettySize=auto;html=1;fontSize=36;" edge="1" parent="1" source="xhBRm6GIx4WbmQBnxWzt-24" target="xhBRm6GIx4WbmQBnxWzt-37">
          <mxGeometry relative="1" as="geometry" />
        </mxCell>
        <mxCell id="xhBRm6GIx4WbmQBnxWzt-19" style="edgeStyle=orthogonalEdgeStyle;rounded=0;orthogonalLoop=1;jettySize=auto;html=1;exitX=0.5;exitY=1;exitDx=0;exitDy=0;entryX=0.5;entryY=0;entryDx=0;entryDy=0;fontSize=36;" edge="1" parent="1" source="xhBRm6GIx4WbmQBnxWzt-24" target="xhBRm6GIx4WbmQBnxWzt-30">
          <mxGeometry relative="1" as="geometry" />
        </mxCell>
        <mxCell id="xhBRm6GIx4WbmQBnxWzt-20" style="edgeStyle=orthogonalEdgeStyle;rounded=0;orthogonalLoop=1;jettySize=auto;html=1;exitX=0.5;exitY=1;exitDx=0;exitDy=0;entryX=0.5;entryY=0;entryDx=0;entryDy=0;fontSize=36;" edge="1" parent="1" source="xhBRm6GIx4WbmQBnxWzt-24" target="xhBRm6GIx4WbmQBnxWzt-50">
          <mxGeometry relative="1" as="geometry" />
        </mxCell>
        <mxCell id="xhBRm6GIx4WbmQBnxWzt-21" style="edgeStyle=orthogonalEdgeStyle;rounded=0;orthogonalLoop=1;jettySize=auto;html=1;exitX=0.5;exitY=1;exitDx=0;exitDy=0;entryX=0.5;entryY=0;entryDx=0;entryDy=0;fontSize=36;" edge="1" parent="1" source="xhBRm6GIx4WbmQBnxWzt-24" target="xhBRm6GIx4WbmQBnxWzt-40">
          <mxGeometry relative="1" as="geometry" />
        </mxCell>
        <mxCell id="xhBRm6GIx4WbmQBnxWzt-22" style="edgeStyle=orthogonalEdgeStyle;rounded=0;orthogonalLoop=1;jettySize=auto;html=1;exitX=0.5;exitY=1;exitDx=0;exitDy=0;entryX=0.5;entryY=0;entryDx=0;entryDy=0;fontSize=36;" edge="1" parent="1" source="xhBRm6GIx4WbmQBnxWzt-24" target="xhBRm6GIx4WbmQBnxWzt-42">
          <mxGeometry relative="1" as="geometry" />
        </mxCell>
        <mxCell id="xhBRm6GIx4WbmQBnxWzt-23" style="edgeStyle=orthogonalEdgeStyle;rounded=0;orthogonalLoop=1;jettySize=auto;html=1;exitX=0.5;exitY=1;exitDx=0;exitDy=0;fontSize=14;" edge="1" parent="1" source="xhBRm6GIx4WbmQBnxWzt-24" target="xhBRm6GIx4WbmQBnxWzt-44">
          <mxGeometry relative="1" as="geometry" />
        </mxCell>
        <mxCell id="xhBRm6GIx4WbmQBnxWzt-24" value="Annotation" style="rounded=0;whiteSpace=wrap;html=1;" vertex="1" parent="1">
          <mxGeometry x="810" y="230" width="120" height="60" as="geometry" />
        </mxCell>
        <mxCell id="xhBRm6GIx4WbmQBnxWzt-25" style="edgeStyle=orthogonalEdgeStyle;rounded=0;orthogonalLoop=1;jettySize=auto;html=1;exitX=0.5;exitY=1;exitDx=0;exitDy=0;entryX=0;entryY=0.5;entryDx=0;entryDy=0;fontSize=36;" edge="1" parent="1" source="xhBRm6GIx4WbmQBnxWzt-30" target="xhBRm6GIx4WbmQBnxWzt-31">
          <mxGeometry relative="1" as="geometry" />
        </mxCell>
        <mxCell id="xhBRm6GIx4WbmQBnxWzt-26" style="edgeStyle=orthogonalEdgeStyle;rounded=0;orthogonalLoop=1;jettySize=auto;html=1;exitX=0.5;exitY=1;exitDx=0;exitDy=0;entryX=0;entryY=0.5;entryDx=0;entryDy=0;fontSize=36;" edge="1" parent="1" source="xhBRm6GIx4WbmQBnxWzt-30" target="xhBRm6GIx4WbmQBnxWzt-32">
          <mxGeometry relative="1" as="geometry" />
        </mxCell>
        <mxCell id="xhBRm6GIx4WbmQBnxWzt-27" style="edgeStyle=orthogonalEdgeStyle;rounded=0;orthogonalLoop=1;jettySize=auto;html=1;exitX=0.5;exitY=1;exitDx=0;exitDy=0;entryX=0;entryY=0.5;entryDx=0;entryDy=0;fontSize=36;" edge="1" parent="1" source="xhBRm6GIx4WbmQBnxWzt-30" target="xhBRm6GIx4WbmQBnxWzt-33">
          <mxGeometry relative="1" as="geometry" />
        </mxCell>
        <mxCell id="xhBRm6GIx4WbmQBnxWzt-28" style="edgeStyle=orthogonalEdgeStyle;rounded=0;orthogonalLoop=1;jettySize=auto;html=1;exitX=0.5;exitY=1;exitDx=0;exitDy=0;entryX=0;entryY=0.5;entryDx=0;entryDy=0;fontSize=36;" edge="1" parent="1" source="xhBRm6GIx4WbmQBnxWzt-30" target="xhBRm6GIx4WbmQBnxWzt-34">
          <mxGeometry relative="1" as="geometry" />
        </mxCell>
        <mxCell id="xhBRm6GIx4WbmQBnxWzt-29" style="edgeStyle=orthogonalEdgeStyle;rounded=0;orthogonalLoop=1;jettySize=auto;html=1;exitX=0.5;exitY=1;exitDx=0;exitDy=0;entryX=0;entryY=0.5;entryDx=0;entryDy=0;fontSize=36;" edge="1" parent="1" source="xhBRm6GIx4WbmQBnxWzt-30" target="xhBRm6GIx4WbmQBnxWzt-35">
          <mxGeometry relative="1" as="geometry" />
        </mxCell>
        <mxCell id="xhBRm6GIx4WbmQBnxWzt-30" value="Mapping" style="rounded=0;whiteSpace=wrap;html=1;" vertex="1" parent="1">
          <mxGeometry x="580" y="330" width="120" height="60" as="geometry" />
        </mxCell>
        <mxCell id="xhBRm6GIx4WbmQBnxWzt-31" value="@PostMapping" style="rounded=0;whiteSpace=wrap;html=1;" vertex="1" parent="1">
          <mxGeometry x="660" y="420" width="120" height="60" as="geometry" />
        </mxCell>
        <mxCell id="xhBRm6GIx4WbmQBnxWzt-32" value="@GetMapping" style="rounded=0;whiteSpace=wrap;html=1;" vertex="1" parent="1">
          <mxGeometry x="660" y="510" width="120" height="60" as="geometry" />
        </mxCell>
        <mxCell id="xhBRm6GIx4WbmQBnxWzt-33" value="@PutMapping" style="rounded=0;whiteSpace=wrap;html=1;" vertex="1" parent="1">
          <mxGeometry x="660" y="600" width="120" height="60" as="geometry" />
        </mxCell>
        <mxCell id="xhBRm6GIx4WbmQBnxWzt-34" value="@DeleteMapping" style="rounded=0;whiteSpace=wrap;html=1;" vertex="1" parent="1">
          <mxGeometry x="660" y="690" width="120" height="60" as="geometry" />
        </mxCell>
        <mxCell id="xhBRm6GIx4WbmQBnxWzt-35" value="@RequestMapping" style="rounded=0;whiteSpace=wrap;html=1;" vertex="1" parent="1">
          <mxGeometry x="660" y="780" width="120" height="60" as="geometry" />
        </mxCell>
        <mxCell id="xhBRm6GIx4WbmQBnxWzt-36" value="" style="edgeStyle=orthogonalEdgeStyle;rounded=0;orthogonalLoop=1;jettySize=auto;html=1;fontSize=36;" edge="1" parent="1" source="xhBRm6GIx4WbmQBnxWzt-37" target="xhBRm6GIx4WbmQBnxWzt-38">
          <mxGeometry relative="1" as="geometry" />
        </mxCell>
        <mxCell id="xhBRm6GIx4WbmQBnxWzt-37" value="URL" style="rounded=0;whiteSpace=wrap;html=1;" vertex="1" parent="1">
          <mxGeometry x="810" y="330" width="120" height="60" as="geometry" />
        </mxCell>
        <mxCell id="xhBRm6GIx4WbmQBnxWzt-38" value="@PathVariable" style="rounded=0;whiteSpace=wrap;html=1;" vertex="1" parent="1">
          <mxGeometry x="810" y="420" width="120" height="60" as="geometry" />
        </mxCell>
        <mxCell id="xhBRm6GIx4WbmQBnxWzt-39" value="" style="edgeStyle=orthogonalEdgeStyle;rounded=0;orthogonalLoop=1;jettySize=auto;html=1;fontSize=36;" edge="1" parent="1" source="xhBRm6GIx4WbmQBnxWzt-40" target="xhBRm6GIx4WbmQBnxWzt-41">
          <mxGeometry relative="1" as="geometry" />
        </mxCell>
        <mxCell id="xhBRm6GIx4WbmQBnxWzt-40" value="Query" style="rounded=0;whiteSpace=wrap;html=1;" vertex="1" parent="1">
          <mxGeometry x="960" y="330" width="120" height="60" as="geometry" />
        </mxCell>
        <mxCell id="xhBRm6GIx4WbmQBnxWzt-41" value="@RequestParam" style="rounded=0;whiteSpace=wrap;html=1;" vertex="1" parent="1">
          <mxGeometry x="960" y="420" width="120" height="60" as="geometry" />
        </mxCell>
        <mxCell id="xhBRm6GIx4WbmQBnxWzt-42" value="@RequestBody" style="rounded=0;whiteSpace=wrap;html=1;" vertex="1" parent="1">
          <mxGeometry x="1110" y="330" width="120" height="60" as="geometry" />
        </mxCell>
        <mxCell id="xhBRm6GIx4WbmQBnxWzt-43" value="" style="edgeStyle=orthogonalEdgeStyle;rounded=0;orthogonalLoop=1;jettySize=auto;html=1;fontSize=36;" edge="1" parent="1" source="xhBRm6GIx4WbmQBnxWzt-44" target="xhBRm6GIx4WbmQBnxWzt-56">
          <mxGeometry relative="1" as="geometry" />
        </mxCell>
        <mxCell id="xhBRm6GIx4WbmQBnxWzt-44" value="@ResponseStatus" style="rounded=0;whiteSpace=wrap;html=1;" vertex="1" parent="1">
          <mxGeometry x="1260" y="330" width="120" height="60" as="geometry" />
        </mxCell>
        <mxCell id="xhBRm6GIx4WbmQBnxWzt-45" style="edgeStyle=orthogonalEdgeStyle;rounded=0;orthogonalLoop=1;jettySize=auto;html=1;exitX=0.5;exitY=1;exitDx=0;exitDy=0;entryX=0;entryY=0.5;entryDx=0;entryDy=0;fontSize=36;" edge="1" parent="1" source="xhBRm6GIx4WbmQBnxWzt-50" target="xhBRm6GIx4WbmQBnxWzt-55">
          <mxGeometry relative="1" as="geometry" />
        </mxCell>
        <mxCell id="xhBRm6GIx4WbmQBnxWzt-46" style="edgeStyle=orthogonalEdgeStyle;rounded=0;orthogonalLoop=1;jettySize=auto;html=1;exitX=0.5;exitY=1;exitDx=0;exitDy=0;entryX=0;entryY=0.5;entryDx=0;entryDy=0;fontSize=36;" edge="1" parent="1" source="xhBRm6GIx4WbmQBnxWzt-50" target="xhBRm6GIx4WbmQBnxWzt-54">
          <mxGeometry relative="1" as="geometry" />
        </mxCell>
        <mxCell id="xhBRm6GIx4WbmQBnxWzt-47" style="edgeStyle=orthogonalEdgeStyle;rounded=0;orthogonalLoop=1;jettySize=auto;html=1;exitX=0.5;exitY=1;exitDx=0;exitDy=0;entryX=0;entryY=0.5;entryDx=0;entryDy=0;fontSize=36;" edge="1" parent="1" source="xhBRm6GIx4WbmQBnxWzt-50" target="xhBRm6GIx4WbmQBnxWzt-53">
          <mxGeometry relative="1" as="geometry" />
        </mxCell>
        <mxCell id="xhBRm6GIx4WbmQBnxWzt-48" style="edgeStyle=orthogonalEdgeStyle;rounded=0;orthogonalLoop=1;jettySize=auto;html=1;exitX=0.5;exitY=1;exitDx=0;exitDy=0;entryX=0;entryY=0.5;entryDx=0;entryDy=0;fontSize=36;" edge="1" parent="1" source="xhBRm6GIx4WbmQBnxWzt-50" target="xhBRm6GIx4WbmQBnxWzt-52">
          <mxGeometry relative="1" as="geometry" />
        </mxCell>
        <mxCell id="xhBRm6GIx4WbmQBnxWzt-49" style="edgeStyle=orthogonalEdgeStyle;rounded=0;orthogonalLoop=1;jettySize=auto;html=1;exitX=0.5;exitY=1;exitDx=0;exitDy=0;entryX=0;entryY=0.5;entryDx=0;entryDy=0;fontSize=36;" edge="1" parent="1" source="xhBRm6GIx4WbmQBnxWzt-50" target="xhBRm6GIx4WbmQBnxWzt-51">
          <mxGeometry relative="1" as="geometry" />
        </mxCell>
        <mxCell id="xhBRm6GIx4WbmQBnxWzt-50" value="Structure Type" style="rounded=0;whiteSpace=wrap;html=1;" vertex="1" parent="1">
          <mxGeometry x="360" y="330" width="120" height="60" as="geometry" />
        </mxCell>
        <mxCell id="xhBRm6GIx4WbmQBnxWzt-51" value="@Entity" style="rounded=0;whiteSpace=wrap;html=1;" vertex="1" parent="1">
          <mxGeometry x="440" y="780" width="120" height="60" as="geometry" />
        </mxCell>
        <mxCell id="xhBRm6GIx4WbmQBnxWzt-52" value="@Repository" style="rounded=0;whiteSpace=wrap;html=1;" vertex="1" parent="1">
          <mxGeometry x="440" y="690" width="120" height="60" as="geometry" />
        </mxCell>
        <mxCell id="xhBRm6GIx4WbmQBnxWzt-53" value="@Service" style="rounded=0;whiteSpace=wrap;html=1;" vertex="1" parent="1">
          <mxGeometry x="440" y="600" width="120" height="60" as="geometry" />
        </mxCell>
        <mxCell id="xhBRm6GIx4WbmQBnxWzt-54" value="@RestController" style="rounded=0;whiteSpace=wrap;html=1;" vertex="1" parent="1">
          <mxGeometry x="440" y="510" width="120" height="60" as="geometry" />
        </mxCell>
        <mxCell id="xhBRm6GIx4WbmQBnxWzt-55" value="@SpringBootApplication" style="rounded=0;whiteSpace=wrap;html=1;" vertex="1" parent="1">
          <mxGeometry x="440" y="420" width="134" height="60" as="geometry" />
        </mxCell>
        <mxCell id="xhBRm6GIx4WbmQBnxWzt-56" value="Http Status Code" style="rounded=0;whiteSpace=wrap;html=1;" vertex="1" parent="1">
          <mxGeometry x="1260" y="420" width="120" height="60" as="geometry" />
        </mxCell>
        <mxCell id="xhBRm6GIx4WbmQBnxWzt-57" style="edgeStyle=orthogonalEdgeStyle;rounded=0;orthogonalLoop=1;jettySize=auto;html=1;exitX=0.5;exitY=1;exitDx=0;exitDy=0;entryX=0;entryY=0.5;entryDx=0;entryDy=0;fontSize=36;" edge="1" parent="1" source="xhBRm6GIx4WbmQBnxWzt-59" target="xhBRm6GIx4WbmQBnxWzt-61">
          <mxGeometry relative="1" as="geometry" />
        </mxCell>
        <mxCell id="xhBRm6GIx4WbmQBnxWzt-58" style="edgeStyle=orthogonalEdgeStyle;rounded=0;orthogonalLoop=1;jettySize=auto;html=1;exitX=0.5;exitY=1;exitDx=0;exitDy=0;entryX=0;entryY=0.5;entryDx=0;entryDy=0;fontSize=36;" edge="1" parent="1" source="xhBRm6GIx4WbmQBnxWzt-59" target="xhBRm6GIx4WbmQBnxWzt-63">
          <mxGeometry relative="1" as="geometry" />
        </mxCell>
        <mxCell id="xhBRm6GIx4WbmQBnxWzt-59" value="Test" style="rounded=0;whiteSpace=wrap;html=1;" vertex="1" parent="1">
          <mxGeometry x="-240" y="230" width="120" height="60" as="geometry" />
        </mxCell>
        <mxCell id="xhBRm6GIx4WbmQBnxWzt-60" value="" style="edgeStyle=orthogonalEdgeStyle;rounded=0;orthogonalLoop=1;jettySize=auto;html=1;fontSize=36;" edge="1" parent="1" source="xhBRm6GIx4WbmQBnxWzt-61" target="xhBRm6GIx4WbmQBnxWzt-9">
          <mxGeometry relative="1" as="geometry" />
        </mxCell>
        <mxCell id="xhBRm6GIx4WbmQBnxWzt-61" value="API Integration test" style="rounded=0;whiteSpace=wrap;html=1;" vertex="1" parent="1">
          <mxGeometry x="-160" y="330" width="120" height="60" as="geometry" />
        </mxCell>
        <mxCell id="xhBRm6GIx4WbmQBnxWzt-62" value="" style="edgeStyle=orthogonalEdgeStyle;rounded=0;orthogonalLoop=1;jettySize=auto;html=1;fontSize=36;" edge="1" parent="1" source="xhBRm6GIx4WbmQBnxWzt-63" target="xhBRm6GIx4WbmQBnxWzt-11">
          <mxGeometry relative="1" as="geometry" />
        </mxCell>
        <mxCell id="xhBRm6GIx4WbmQBnxWzt-63" value="Unit test" style="rounded=0;whiteSpace=wrap;html=1;" vertex="1" parent="1">
          <mxGeometry x="-160" y="420" width="120" height="60" as="geometry" />
        </mxCell>
        <mxCell id="xhBRm6GIx4WbmQBnxWzt-64" value="Database" style="rounded=0;whiteSpace=wrap;html=1;" vertex="1" parent="1">
          <mxGeometry x="30" y="690" width="120" height="60" as="geometry" />
        </mxCell>
        <mxCell id="xhBRm6GIx4WbmQBnxWzt-65" value="&lt;font style=&quot;font-size: 14px&quot;&gt;requires&lt;/font&gt;" style="text;html=1;align=center;verticalAlign=middle;resizable=0;points=[];autosize=1;strokeColor=none;fillColor=none;fontSize=36;" vertex="1" parent="1">
          <mxGeometry x="15" y="140" width="70" height="60" as="geometry" />
        </mxCell>
        <mxCell id="xhBRm6GIx4WbmQBnxWzt-66" value="contains" style="text;html=1;align=center;verticalAlign=middle;resizable=0;points=[];autosize=1;strokeColor=none;fillColor=none;fontSize=14;" vertex="1" parent="1">
          <mxGeometry x="195" y="210" width="70" height="20" as="geometry" />
        </mxCell>
        <mxCell id="xhBRm6GIx4WbmQBnxWzt-67" value="uses" style="text;html=1;align=center;verticalAlign=middle;resizable=0;points=[];autosize=1;strokeColor=none;fillColor=none;fontSize=14;" vertex="1" parent="1">
          <mxGeometry x="579" y="210" width="50" height="20" as="geometry" />
        </mxCell>
        <mxCell id="xhBRm6GIx4WbmQBnxWzt-68" value="includes" style="text;html=1;align=center;verticalAlign=middle;resizable=0;points=[];autosize=1;strokeColor=none;fillColor=none;fontSize=14;" vertex="1" parent="1">
          <mxGeometry x="-245" y="310" width="70" height="20" as="geometry" />
        </mxCell>
        <mxCell id="xhBRm6GIx4WbmQBnxWzt-69" value="test for" style="text;html=1;align=center;verticalAlign=middle;resizable=0;points=[];autosize=1;strokeColor=none;fillColor=none;fontSize=14;" vertex="1" parent="1">
          <mxGeometry x="-35" y="330" width="60" height="20" as="geometry" />
        </mxCell>
        <mxCell id="xhBRm6GIx4WbmQBnxWzt-70" value="test for" style="text;html=1;align=center;verticalAlign=middle;resizable=0;points=[];autosize=1;strokeColor=none;fillColor=none;fontSize=14;" vertex="1" parent="1">
          <mxGeometry x="-35" y="420" width="60" height="20" as="geometry" />
        </mxCell>
        <mxCell id="xhBRm6GIx4WbmQBnxWzt-71" value="contains" style="text;html=1;align=center;verticalAlign=middle;resizable=0;points=[];autosize=1;strokeColor=none;fillColor=none;fontSize=14;" vertex="1" parent="1">
          <mxGeometry x="90" y="300" width="70" height="20" as="geometry" />
        </mxCell>
        <mxCell id="xhBRm6GIx4WbmQBnxWzt-72" value="invokes" style="text;html=1;align=center;verticalAlign=middle;resizable=0;points=[];autosize=1;strokeColor=none;fillColor=none;fontSize=14;" vertex="1" parent="1">
          <mxGeometry x="95" y="390" width="60" height="20" as="geometry" />
        </mxCell>
        <mxCell id="xhBRm6GIx4WbmQBnxWzt-73" value="invokes" style="text;html=1;align=center;verticalAlign=middle;resizable=0;points=[];autosize=1;strokeColor=none;fillColor=none;fontSize=14;" vertex="1" parent="1">
          <mxGeometry x="95" y="480" width="60" height="20" as="geometry" />
        </mxCell>
        <mxCell id="xhBRm6GIx4WbmQBnxWzt-74" value="extends" style="text;html=1;align=center;verticalAlign=middle;resizable=0;points=[];autosize=1;strokeColor=none;fillColor=none;fontSize=14;" vertex="1" parent="1">
          <mxGeometry x="95" y="575" width="60" height="20" as="geometry" />
        </mxCell>
        <mxCell id="xhBRm6GIx4WbmQBnxWzt-75" value="invokes" style="text;html=1;align=center;verticalAlign=middle;resizable=0;points=[];autosize=1;strokeColor=none;fillColor=none;fontSize=14;" vertex="1" parent="1">
          <mxGeometry x="100" y="660" width="60" height="20" as="geometry" />
        </mxCell>
        <mxCell id="xhBRm6GIx4WbmQBnxWzt-76" value="manages" style="text;html=1;align=center;verticalAlign=middle;resizable=0;points=[];autosize=1;strokeColor=none;fillColor=none;fontSize=14;" vertex="1" parent="1">
          <mxGeometry x="150" y="720" width="70" height="20" as="geometry" />
        </mxCell>
        <mxCell id="xhBRm6GIx4WbmQBnxWzt-77" value="includes" style="text;html=1;align=center;verticalAlign=middle;resizable=0;points=[];autosize=1;strokeColor=none;fillColor=none;fontSize=14;" vertex="1" parent="1">
          <mxGeometry x="730" y="290" width="70" height="20" as="geometry" />
        </mxCell>
        <mxCell id="xhBRm6GIx4WbmQBnxWzt-78" value="has" style="text;html=1;align=center;verticalAlign=middle;resizable=0;points=[];autosize=1;strokeColor=none;fillColor=none;fontSize=14;" vertex="1" parent="1">
          <mxGeometry x="374" y="400" width="40" height="20" as="geometry" />
        </mxCell>
        <mxCell id="xhBRm6GIx4WbmQBnxWzt-79" value="has" style="text;html=1;align=center;verticalAlign=middle;resizable=0;points=[];autosize=1;strokeColor=none;fillColor=none;fontSize=14;" vertex="1" parent="1">
          <mxGeometry x="590" y="400" width="40" height="20" as="geometry" />
        </mxCell>
        <mxCell id="xhBRm6GIx4WbmQBnxWzt-80" value="has" style="text;html=1;align=center;verticalAlign=middle;resizable=0;points=[];autosize=1;strokeColor=none;fillColor=none;fontSize=14;" vertex="1" parent="1">
          <mxGeometry x="827" y="390" width="40" height="20" as="geometry" />
        </mxCell>
        <mxCell id="xhBRm6GIx4WbmQBnxWzt-81" value="has" style="text;html=1;align=center;verticalAlign=middle;resizable=0;points=[];autosize=1;strokeColor=none;fillColor=none;fontSize=14;" vertex="1" parent="1">
          <mxGeometry x="970" y="390" width="40" height="20" as="geometry" />
        </mxCell>
        <mxCell id="xhBRm6GIx4WbmQBnxWzt-82" value="relate to" style="text;html=1;align=center;verticalAlign=middle;resizable=0;points=[];autosize=1;strokeColor=none;fillColor=none;fontSize=14;" vertex="1" parent="1">
          <mxGeometry x="1320" y="390" width="70" height="20" as="geometry" />
        </mxCell>
      </root>
    </mxGraphModel>
  </diagram>
</mxfile>
